<svg xmlns="http://www.w3.org/2000/svg" viewBox="0 0 1080 981.97"><defs><style>.a{fill:#fff;}</style></defs><path class="a" d="M1056.67,403.91,873.74,87.07A174.15,174.15,0,0,0,722.93,0H357.07A174.15,174.15,0,0,0,206.26,87.07L23.33,403.91a174.14,174.14,0,0,0,0,174.15L206.26,894.9A174.15,174.15,0,0,0,357.07,982H722.93A174.15,174.15,0,0,0,873.74,894.9l182.93-316.84A174.14,174.14,0,0,0,1056.67,403.91ZM747,688.07V802H328.21V736.5q0-62.68,24.69-107.33T414.15,557q36.54-27.56,85-52.23l38-19.95q31.33-17.08,51.75-32.29t31.82-32.77a69.2,69.2,0,0,0,11.39-38.46q0-39.87-22.32-62.69t-61.25-22.79q-38,0-61.74,19.47t-32.75,47q-9.06,27.58-5.23,52.25H330.11q-5.69-45.6,18-101.15t75-94.49q51.29-39,124.41-39,93.06,0,148.64,53.67t55.56,142.92q0,41.83-19,76a233.45,233.45,0,0,1-48,60.3,452.21,452.21,0,0,1-66,48.93c-6.33,3.79-12.35,7.44-18.05,10.9s-11.4,6.82-17.09,10c-7,3.82-13.77,7.46-20.42,10.93s-13.46,6.82-20.43,10q-30.37,16.17-46.53,26.11a114.74,114.74,0,0,0-28,24.24q-11.9,14.22-15.66,34.19Z"/></svg>