<svg xmlns="http://www.w3.org/2000/svg" xmlns:xlink="http://www.w3.org/1999/xlink" width="457" height="148" viewBox="0 0 457 148">
  <defs>
    <polygon id="hands-a" points="0 .396 21.647 .396 21.647 18.966 0 18.966"/>
  </defs>
  <g fill="none" fill-rule="evenodd" opacity=".159">
    <path fill="#8E7DBE" d="M148.545826 60.3605341C148.101731 60.4547219 147.340175 60.1880031 146.905754 60.8358746 146.559273 61.3508269 146.923342 61.8569765 147.279497 62.200278 149.491175 64.3375499 151.786396 66.3823945 154.331364 68.119148 155.022569 68.5909675 155.617039 68.4545271 155.655733 67.4580725 155.749828 65.0355963 151.250844 60.4353562 148.545826 60.3605341M152.883001 99.2706782C153.01579 101.362177 153.866164 103.171111 155.474578 104.58833 157.081232 106.002909 158.614896 105.954494 160.047431 104.312809 161.048182 103.16495 161.853708 101.843679 162.727826 100.588428 163.539508 99.4220829 163.21677 98.6192856 161.993531 97.9423655 160.52758 97.1307655 159.14781 96.16512 157.719673 95.2839795 155.768295 94.081544 154.565283 94.4274862 153.472195 96.4450428 152.998202 97.3182609 153.049207 98.2830262 152.883001 99.2706782M202.461523 85.3942555C201.845947 86.2181791 201.082632 86.143357 200.381754 86.2243409 197.732138 86.5315517 197.399727 86.9206268 198.280001 89.4196857 199.517309 92.9372056 200.807382 96.442402 202.253986 99.8771775 203.04808 101.763575 204.215916 103.543461 206.067921 104.576887 207.833746 105.562778 209.873942 106.091815 211.715395 105.031101 213.416145 104.050491 212.858608 102.193142 212.607101 100.627159 212.388132 99.2574743 211.966023 97.9212392 211.70836 96.5568358 211.248436 94.1202754 210.335625 91.7506148 210.450825 89.2286692 210.664518 84.5553675 209.971555 80.0986098 208.172313 75.7228361 206.516413 71.6938849 205.773324 67.3753281 203.644309 63.4256003 200.708889 57.9803103 196.457015 55.4134714 190.458663 55.2559048 188.184548 55.1960471 185.957041 54.7215869 183.771745 54.1115665 182.66019 53.8017149 181.428157 52.9681084 180.532933 54.08956 179.514594 55.3650571 180.594491 56.5578098 181.275143 57.654614 181.580293 58.1466795 182.019111 58.5568808 182.394612 59.0058135 184.223754 61.1941405 186.154905 63.3058849 187.856534 65.58928 190.14296 68.6578672 191.317832 69.2001076 195.061416 68.332171 195.749102 68.1728438 196.427116 67.9721445 197.543068 67.6754968 195.903876 69.2494021 194.276116 69.4545028 192.592954 69.5407683 191.61067 69.5909431 190.495598 69.6860112 190.818336 71.1049908 191.559665 74.366355 192.339689 77.5572984 193.901494 80.6329278 195.777243 84.3282603 198.118192 86.295642 202.461523 85.3942555M192.461045 87.4382198C191.521851 89.0086041 189.322485 88.6758657 189.662811 90.5411372 190.295096 93.9961587 190.831526 97.5101577 192.473357 100.66325 193.679886 102.981855 195.663801 104.439566 198.344197 104.736214 199.278993 104.840085 200.118815 104.65611 200.394066 103.554025 200.752859 102.122721 201.219818 100.587548 200.675472 99.2222639 198.914924 94.8130402 197.916811 90.1115702 195.634781 85.910088 193.200616 81.425162 190.087558 77.2289614 189.876504 71.8338463 189.810549 70.1367045 188.983038 68.7388512 187.974373 67.4712764 186.564703 65.6993125 184.976516 64.06731 183.612574 62.2636567 181.640092 59.6536851 178.989596 57.5745104 177.673141 54.4399036 177.112967 53.1098303 175.793875 52.4126642 174.531943 51.8079254 173.91109 51.5112777 173.090615 50.8783706 172.533958 51.600184 171.894638 52.4293892 172.913857 52.8932863 173.386092 53.3246138 175.100032 54.8914771 176.887842 56.3782367 178.64839 57.8949251 178.410954 58.1396374 178.173517 58.3843498 177.93696 58.6290621 176.906309 57.7576045 175.825533 56.940723 174.858199 56.0041261 172.871646 54.0807574 170.650294 52.7462829 167.896909 52.0790456 164.290511 51.2058274 160.607605 51.086112 157.002086 51.1442092 152.729107 51.2128695 148.887031 52.8721601 146.677991 56.9908978 146.331509 57.6370088 145.889174 58.3861103 146.584775 58.9855676 147.195954 59.5137237 148.021706 59.3227072 148.638162 58.8984218 149.632758 58.2153398 148.460524 57.4002188 148.515047 56.4821074 151.205116 58.1563624 153.458125 59.9908248 155.206362 62.4009773 156.012767 63.5145066 156.825328 64.2776922 157.496306 62.2011583 159.066026 64.6377187 158.82771 67.3436387 159.655221 69.74939 161.116775 73.997526 164.603575 76.1242347 168.429822 77.7544767 169.603814 78.2553448 170.401426 77.6787744 170.08924 76.1568044 169.919517 75.3293597 169.457835 74.5168795 169.760347 73.4623277 170.796274 74.3654747 170.856952 75.5767129 171.224539 76.6444686 171.364363 77.0493883 171.548156 77.5194472 172.115366 77.4146963 172.56034 77.3319518 172.672902 76.8883006 172.621018 76.551161 172.134713 73.3936674 172.403808 69.7801991 170.200923 67.3770886 166.609475 63.4599304 163.069031 59.4309792 158.913011 56.0622232 157.761004 55.1282671 156.43048 54.4170168 155.18086 53.6036563 155.566914 53.4320056 155.842165 53.4716173 156.091033 53.5746078 163.021544 56.4460167 167.747412 62.024226 172.598154 67.3568426 174.505561 69.4536225 176.085834 71.8408883 178.315979 73.6753507 180.790596 75.7113927 183.280163 76.9877701 186.461813 74.2096687 186.208548 74.8742652 186.149628 75.0855276 186.049377 75.2747836 185.947368 75.4684408 185.846237 75.7175545 185.673876 75.8082213 182.769235 77.3425149 183.593228 79.4753855 184.608929 81.7473373 185.060058 82.7587563 185.581539 83.7067966 186.149628 84.645154 187.510932 86.8915782 188.830903 89.1881772 192.461045 87.4382198M.911261046 117C-.311097781 114.434041.388021116 113.004499 1.93575603 111.640095 14.1927613 100.83402 26.9079313 90.5754674 39.3777501 80.0237877 46.9247167 73.6374995 54.3617588 67.1209328 61.9043284 60.7284829 65.7252989 57.4900054 70.1249113 55.1344289 74.5614583 52.8607167 75.1585674 52.5543861 76.211203 52.5306191 75.9412288 51.4971936 75.7090686 50.6116517 74.7558045 50.6706292 74.0733942 50.7225645 70.4256644 50.998086 67.117381 52.3281592 63.9735444 54.1353335 61.8462883 55.3571348 59.9960416 56.968011 57.9962977 58.3790682 59.7357407 55.1291474 62.5964121 53.21018 65.8580876 51.8422556 68.4206441 50.7674578 71.0676226 49.8933594 73.6548022 48.8722575 74.856935 48.3977972 75.9552991 47.7604888 75.4725113 46.1161626 75.0266582 44.5968334 74.1815597 43.8045992 72.4465137 43.9137514 70.8961406 44.0105801 69.496144 44.6769371 67.7962738 44.9339731 68.1673784 44.0484313 69.1769237 43.9005475 69.3976518 42.7773355 65.1959032 43.4322491 62.2877445 46.5615743 58.005971 47.79834 61.928072 44.8565102 65.4658775 42.3143186 69.6482793 40.8090735 72.0534242 39.9437777 72.1721425 39.3108706 70.3878504 37.502816 68.3626041 35.4526899 65.7930123 34.4333485 62.8646275 33.687768 63.9876147 33.0847898 65.0604764 33.664001 66.0752981 33.4166479 65.7332135 31.877953 64.1722876 32.134989 63.1249284 31.0575504 67.142004 31.7608783 70.2814436 33.3030943 72.4174937 36.4042512 73.9511583 38.6295491 75.4426119 40.9419928 76.5427349 43.3996795 80.3584291 51.9232395 87.124493 57.654614 94.4700781 62.8763179 95.8401752 63.850766 97.27183 64.7415894 98.7034848 65.6244904 99.3595134 66.0285299 100.019939 66.5778123 101.190413 66.1086335 97.8988385 61.4608594 95.7346478 56.2638028 92.6901829 51.5420868 95.0328908 53.2612351 96.5252238 55.6925139 97.9146677 58.1563624 99.8616478 61.6087431 101.815663 65.0276739 104.662264 67.8568304 105.912764 69.0997579 107.393665 69.7995648 109.046927 70.2238502 109.896422 70.4412745 110.820666 70.7388025 111.510112 69.9333644 112.21099 69.1147223 112.087874 68.0980217 111.697423 67.2221628 110.923556 65.4854093 109.986121 63.8234779 109.176198 62.1025691 108.244039 60.1219835 107.376077 58.1105889 106.611883 56.0384562 108.229969 57.5709893 109.039892 59.6360799 109.995794 61.5471249 113.27154 68.0945007 118.431829 71.985251 125.555806 73.5961273 129.80768 74.5573715 133.297998 77.3486768 137.196356 79.1743365 144.193701 82.4497849 149.713662 87.7956055 155.885255 92.2268356 159.879466 95.0947235 163.998552 97.7205399 168.830826 99.0259658 171.374916 99.7143293 173.558453 99.0972669 175.211715 97.2223126 177.199148 94.9706068 178.640476 92.4504217 177.287087 89.211064 175.925784 85.9523405 173.445011 83.721761 170.69954 81.72269 166.318395 78.5317465 161.852828 75.4561172 157.509497 72.2141187 148.386655 65.4044253 140.002505 57.8051385 133.09222 48.6918041 130.899009 45.7983887 128.258187 43.4234465 125.287591 41.3504336 128.0058 42.4754062 130.804914 43.5845341 132.587447 46.0316576 135.638948 50.223457 138.314946 49.0535911 141.728757 46.0554246 143.354758 44.6276425 144.610534 42.7509276 146.886408 42.1532309 144.552494 44.0193827 143.472597 47.0465977 140.5618 48.4611759 139.139818 49.1530605 138.240197 50.7744999 139.026376 52.6010399 139.627882 53.9980129 141.726998 54.6080333 143.695084 53.9311132 146.031636 53.1274355 147.896832 51.5781775 149.630999 49.8695923 151.35813 48.1689295 153.176719 46.5932637 155.618798 45.3230481 155.087644 46.4172116 154.248701 46.7922025 153.612899 47.3705335 153.146819 47.7939387 152.406369 48.2041399 152.735263 48.9726071 153.037774 49.6785759 153.821315 49.6099156 154.478223 49.6178379 155.870305 49.6336826 157.261508 49.6301615 158.65359 49.6398444 160.631349 49.6539286 162.57745 49.773644 164.527947 50.2595476 167.697286 51.0509016 170.732078 49.5703038 173.860965 49.408336 174.735083 49.3625624 174.782571 48.4092406 174.779053 47.6451747 174.771138 46.2631661 174.777294 44.8811575 175.29174 43.428728 175.473775 44.629403 175.661965 45.8291978 175.836086 47.030753 176.058573 48.5659269 176.799023 49.4505885 178.425024 49.8537477 181.538082 50.6248556 184.192975 52.7515644 187.489826 53.0552542 189.675122 53.2559535 191.859539 53.4601739 194.044835 53.6643943 195.545083 53.8043557 196.374352 53.2181024 196.541437 51.6283523 196.652241 50.5649979 196.997843 49.520129 197.939675 48.2490332 197.747087 49.6442457 197.594073 50.5702795 197.49646 51.5033554 197.332013 53.0710989 197.720706 54.2973014 199.208642 55.2189339 201.199592 56.4521785 202.066675 58.7056448 203.426219 60.5075375 206.004605 63.9264684 206.884 64.3102618 210.728714 63.3067651 210.669795 64.1641386 209.872184 64.3410709 209.352461 64.5558545 207.62445 65.2688653 207.59631 66.2107437 208.91892 67.2556127 212.185871 69.8382962 214.510112 73.209693 217.001437 76.4710573 219.139246 79.2711652 221.535597 81.8195186 225.189483 82.7895654 227.03973 83.2807506 228.68068 83.0413198 230.249521 82.1469754 231.832431 81.2438284 232.246626 79.3988029 231.22477 77.5440945 228.894373 73.3135637 226.51561 69.1085605 224.085842 64.9343664 221.325422 60.1897636 218.620403 55.4055491 215.655084 50.7894643 211.160497 43.7931558 204.439282 39.5159712 196.906386 36.53541 190.389191 33.9562474 183.839458 31.2600103 177.063721 29.5954381 171.766246 28.2935332 167.013117 26.3622422 162.245038 23.0313374 163.787497 22.8482432 164.590384 23.6932931 165.516387 24.0392354 166.472289 24.396621 167.381584 24.8807642 168.304069 25.3244154 169.198413 25.7539824 170.489365 26.7451554 171.009967 25.91507 171.654563 24.8878063 170.098914 24.3332423 169.344393 23.7399469 166.250682 21.3060273 163.433101 18.4654274 159.538261 17.2040145 158.543666 16.8818392 157.579849 16.6256835 156.543922 16.6608939 148.643438 16.928493 141.001497 15.1001925 133.29624 13.7938863 133.079909 13.7569153 132.867974 13.6662485 132.652523 13.6574459 132.013203 13.6327986 131.133808 13.3616785 130.891974 14.1037379 130.617603 14.9487877 131.599008 15.1010727 132.130162 15.335222 136.082162 17.0754965 140.105394 18.6221138 144.346715 19.5683935 140.951372 19.5384647 137.731907 18.5305667 134.524754 17.5983711 129.18331 16.0473525 124.045006 13.904799 118.879441 11.8590742 115.577313 10.552768 112.063251 10.2041849 108.65032 9.45244267 102.769807 8.15669957 97.1988403 5.88738863 91.3930755 4.37598177 80.710187 1.59700014 70.1935041 1.47288345 59.6847358 5.36715482 40.5279986 12.467334 21.7951297 20.6229453 2.75623142 28.0118499 1.94015301 28.3278633.829477326 29.4466741.185760303 28.0030473-.464112484 26.5444561.706362048 26.0383064 1.91552995 25.57705 14.6350969 20.7285766 27.3555433 15.8827438 40.0399344 10.9427233 49.0431788 7.43664668 58.0358705 3.91824644 67.3811994 1.40246263 76.3193686-1.00416891 85.0192217-.213695205 93.6522409 3.00981785 101.533377 5.95164763 109.559614 8.47183274 117.909468 9.78782183 128.235322 11.4145428 138.557659 13.0729531 148.889669 14.6653439 150.400469 14.8986129 151.973707 15.0350532 153.488904 14.8942116 160.526701 14.2375374 165.929703 17.3976717 170.727681 22.0656919 172.300918 23.5964645 173.840739 25.1615672 175.427167 26.6791359 177.550026 28.7081358 180.454667 28.9669323 183.048003 29.8392702 189.988187 32.1719599 196.875607 34.6789411 203.3673 38.0265708 209.771933 41.3293073 214.627951 46.4040077 218.172791 52.7867748 222.255822 60.1387085 226.189355 67.5892313 230.994368 74.5159993 232.186828 76.2351475 233.075016 77.9551761 232.994991 80.1672701 232.921122 82.2261988 232.189466 83.5351458 230.100903 83.8590816 226.527042 84.4136456 223.085091 84.2006226 220.191882 81.5871299 217.348798 79.0194107 214.679835 76.2721185 212.849814 72.9042427 212.002957 71.3453018 210.644292 70.6410936 209.393793 69.6860112 209.056985 69.428095 208.581232 69.2221141 208.184625 69.5733379 207.773947 69.9360051 208.050077 70.3734945 208.180228 70.7889773 208.706106 72.4623521 209.076331 74.1991056 209.762259 75.8020595 211.176326 79.104796 211.697807 82.5122834 211.656476 86.0861401 211.599315 90.9601411 212.825191 95.6554493 213.96049 100.352518 214.496921 102.569894 214.802071 104.786389 212.58072 106.317162 210.716403 107.601461 206.293047 107.272244 204.71893 105.641122 203.419184 104.294323 202.764914 103.479202 200.860145 105.33127 198.599221 107.52928 192.306272 104.832162 190.908913 101.460766 189.668087 98.4661203 188.926757 95.3306333 188.516959 92.1282465 188.293593 90.3879719 187.642841 88.9566688 186.49611 87.6125113 184.528024 85.3097505 183.179912 82.5976687 182.234562 79.7403439 181.716599 78.1770017 180.933938 77.0238607 179.513715 76.2087397 177.987965 75.3346413 176.621385 74.2316752 175.374403 72.9799451 175.078047 72.6832974 174.672646 72.3215104 174.214482 72.5803069 173.743126 72.8461455 173.903176 73.3540557 174.01398 73.767778 174.675284 76.2307462 174.836214 78.6567435 173.849533 81.1029867 173.462599 82.0607099 174.176668 82.6812934 174.877545 83.308919 179.89801 87.8026476 180.359693 93.4081449 176.314476 98.698509 174.950535 100.482797 173.183831 101.03472 171.126047 100.93349 169.888738 100.873632 168.598666 100.762719 167.446659 100.352518 165.423171 99.6342257 164.271164 100.433502 163.342523 102.122721 162.7076 103.274982 161.959235 104.367385 161.223182 105.459788 159.014142 108.736117 155.41302 108.691223 153.184633 105.371762 150.671323 101.628895 150.578986 97.5260024 151.513783 93.3227596 151.761772 92.2109909 151.825089 91.3087242 150.840167 90.5807489 144.541941 85.9259327 138.358916 81.1126696 131.359812 77.4903987 127.680424 75.587276 123.702921 75.1691524 119.706072 74.6577212 114.043648 73.9323867 108.30208 73.3558162 103.067042 70.8972493 95.1164333 67.1631853 87.9520035 62.224045 82.0459878 55.6705074 80.4147103 53.8615726 78.9883319 53.3712676 76.721252 54.2260003 69.8083292 56.8342115 64.11073 61.3200177 58.4641357 65.866562 48.0160456 74.2792092 38.6320233 83.9048551 28.3782795 92.535807 19.9747824 99.6095784 11.2547032 106.31188 3.40522481 114.026481 2.4871366 114.929628 1.73877159 116.004426.911261046 117M296.603521 103.675274C299.166885 103.46903 301.536705 102.141936 303.579864 100.177836 304.234061 99.550403 304.27347 98.748925 303.805812 97.9857369 302.589374 96.0042325 301.290615 94.0732013 299.267598 92.8000609 298.335784 92.2135286 297.066801 91.5878362 296.217309 92.3066428 294.625168 93.6494013 292.667833 94.2785746 291.003004 95.4316239 290.186791 95.9990112 289.591271 96.6351463 289.678848 97.7403332 289.902168 100.558995 293.383333 103.724006 296.603521 103.675274L296.603521 103.675274zM304.437238 112.575944C306.029379 112.385365 307.223046 112.370571 308.32651 112.726493 309.522805 113.113744 310.185759 112.816126 310.370546 111.618696 310.555332 110.423005 310.000973 109.638932 308.786287 109.451833 308.299362 109.376123 307.723984 109.383955 307.285226 109.573665 304.453878 110.801553 301.464892 110.721493 298.488167 110.650134 296.997615 110.614455 296.40735 111.344574 296.174396 112.669058 295.823214 114.658394 295.312643 116.654693 295.116472 118.628365 294.860749 121.207714 293.52871 123.765308 294.246837 126.330734 295.844233 132.039416 296.865375 137.87254 298.313014 143.609939 298.702729 145.15546 299.74489 146.057885 301.17589 146.216266 303.566728 146.480814 306.802679 145.314712 307.386814 142.043533 307.801927 139.718289 307.447242 137.434816 307.443739 135.130458 307.43936 131.887126 307.110073 129.060633 303.200658 128.308758 303.174385 128.303536 303.169131 128.186056 303.152491 128.111216 303.459009 127.653478 303.957319 127.755294 304.321637 127.876255 306.343778 128.545459 307.340399 127.530776 307.8571 125.783362 308.409708 123.912377 309.268833 122.156261 309.743498 120.244374 311.19464 114.393846 310.092052 113.825588 304.437238 112.575944L304.437238 112.575944zM320.038115 102.010532C319.674672 102.363843 319.348888 102.767628 318.942533 103.063505 314.359655 106.392989 311.472258 110.718012 311.33126 116.476296 311.249814 119.817094 310.443234 122.902044 308.995595 125.875606 307.969198 127.984163 307.900013 130.218033 308.34315 132.466697 308.908018 135.334091 309.06478 138.228462 308.858975 141.123704 308.735492 142.871118 309.405453 143.451558 311.083418 143.440245 313.689695 143.422841 315.172365 142.527378 315.885237 139.887113 316.599861 137.239016 317.035117 134.516079 317.597358 131.827081 318.041371 129.699379 315.869474 129.894309 314.94992 128.957076 315.097049 128.850038 315.203016 128.70471 315.302854 128.709932 318.882105 128.882236 318.836565 128.830023 320.448848 125.497928 321.625001 123.064776 322.232781 120.452358 323.182986 117.952199 323.584087 116.897486 322.904493 116.341411 322.180236 115.799261 320.640641 114.646211 318.842695 114.070992 316.761002 113.468796 319.125568 112.988431 320.951537 113.963084 322.802029 114.596608 324.032478 115.017798 324.968671 114.90989 326.06075 114.200656 328.737963 112.462815 331.518517 110.920774 333.911107 108.733026 336.002433 106.81853 338.507997 106.3956 341.092379 108.075136 341.014436 108.550279 340.678142 108.339684 340.460953 108.313578 340.174578 108.277898 339.900463 108.143884 339.614088 108.099502 338.331968 107.902831 337.335348 108.219593 336.773982 109.523192 333.977665 116.031611 331.439698 122.542641 333.152694 129.886477 333.757848 132.47888 333.848927 135.178321 334.718562 137.744617 335.497117 140.038532 336.701294 141.193322 338.653374 141.14546 340.806004 141.092376 343.168818 139.247497 343.602321 137.275565 344.420286 133.554479 344.077862 129.770737 344.193463 126.013102 344.242506 124.412756 343.020814 123.976773 341.762339 123.724408 341.066982 123.584301 340.333091 123.633034 339.027326 123.565156 340.763967 122.671434 342.022442 122.875067 343.245885 123.121341 344.234624 123.318882 345.058719 123.163112 345.446682 122.220657 346.050084 120.755197 347.25251 119.792727 348.222857 118.631846 350.286159 116.164755 350.195956 114.037923 347.963631 111.613474 346.063221 109.549298 343.865051 107.825381 341.05297 106.004868 345.233872 106.920346 348.119517 109.249941 351.45443 110.592699 354.263884 111.723993 357.218715 111.214911 360.099105 110.970377 361.493323 110.852027 361.528354 110.061861 360.161285 108.196967 362.357703 109.212521 364.521718 108.913163 366.528096 109.523192 367.363575 109.777298 368.063312 109.370902 368.835736 109.157697 374.133238 107.694847 377.835097 103.862372 381.877628 100.550293 384.083679 98.7437036 386.376432 97.1355262 388.987963 95.932874 391.042508 94.9869385 392.842205 93.6093709 394.372166 91.9045984 397.333127 88.6047019 400.251176 85.280439 402.620996 81.5097503 403.379408 80.3036172 404.248167 79.1131482 405.817538 78.2011515 405.439207 79.7701688 404.583585 80.7935544 403.8567 81.8743749 403.553685 82.3260222 403.375905 82.7672267 403.620243 83.2919729 403.956537 84.0125199 404.442587 83.531285 404.912873 83.4895142 408.726829 83.1553474 412.463718 84.0099092 416.215495 84.4006407 424.83127 85.2961031 433.236862 87.537805 441.811476 88.7213122 445.198935 89.1894937 448.568003 89.9431093 452.010635 89.8839339 453.453019 89.8595676 454.681718 90.5461758 456.047911 90.7515491 457 90.8942662 456.935061 91.7845073 456.879012 92.5067947 456.808075 93.4205319 456.211679 93.4431578 455.458521 93.3039216 447.949713 91.9167816 440.346321 91.097899 432.876047 89.4740575 425.905834 87.9572538 418.917229 86.5205109 411.919868 85.1394624 409.116544 84.5859988 406.240532 85.0541803 403.405681 84.8705626 402.77513 84.8287918 402.808409 85.2874008 402.578959 85.6389721 401.518408 87.2723861 400.464862 88.9919524 398.460237 89.6037212 397.441722 89.9152621 398.309605 90.7167401 397.787649 91.190143 393.90188 94.7145578 390.26658 98.6201315 384.934923 99.9942182 383.84985 100.273561 384.204535 101.1551 383.640542 101.666792 377.411226 107.325871 370.342928 111.313246 361.929454 112.581165 359.567516 112.937958 357.123256 112.778707 354.716654 112.79263 353.670115 112.797852 352.764574 112.998004 352.482578 114.099709 351.930846 116.246557 350.425406 117.745956 349.009294 119.290607 345.858292 122.728869 344.792486 126.749313 345.416031 131.286671 345.781225 133.94347 345.267151 136.501064 344.286294 138.937697 343.498981 140.893964 340.086125 142.806721 338.068363 142.652691 335.747586 142.475165 334.524142 141.076712 333.657135 137.995242 332.211247 132.86352 331.663018 127.646516 331.71031 122.331176 331.738334 119.204454 332.54141 116.333579 334.003938 113.60107 334.311331 113.027591 334.644998 112.342723 334.053856 111.792741 333.406666 111.193155 332.851431 111.761413 332.320718 112.127778 330.585827 113.327819 328.826416 114.466075 326.859448 115.29453 325.29971 115.948939 324.347754 117.240355 323.895859 118.865066 322.884351 122.50174 321.625001 126.014842 319.522289 129.217273 318.176238 131.267526 318.445098 133.825119 317.806666 136.113814 317.457235 137.364328 317.399435 138.692293 317.091166 139.956731 316.093669 144.039831 313.550448 145.838588 309.41421 145.296437 308.283598 145.148499 307.469136 145.374757 306.631029 146.102266 305.637912 146.96466 304.442493 147.587742 303.15687 147.866214 300.34041 148.477113 297.814704 146.96553 297.039652 143.952808 295.472033 137.856006 294.02702 131.726135 292.663454 125.58234 292.096835 123.032578 293.366694 120.603778 293.640808 118.095787 293.813334 116.516327 294.187285 114.954271 294.538467 113.399178 294.964965 111.504696 294.439506 110.332502 292.518078 109.467497 288.408988 107.618267 286.4753 104.104295 286.752041 99.6452576 286.886909 97.4609907 287.795953 95.7135771 289.834734 94.7528477 293.089076 93.2195097 295.847736 90.9560522 298.764033 88.9214641 300.254585 87.8815442 301.735503 86.8346625 303.447624 86.1419627 304.448623 85.7364374 305.455753 85.2612941 306.028503 84.2318168 307.419218 81.7316579 308.085675 80.8536 305.006485 79.5500016 303.69459 78.9947975 302.639293 77.8765573 301.775789 76.6799967 301.18815 75.8663355 300.441999 75.3215741 299.38495 75.4146882 293.770421 75.9150681 288.325791 75.0866131 283.100101 73.0842233 280.495577 72.085204 278.084596 72.4924697 275.649093 73.3583445 272.400881 74.512264 269.081732 75.1344755 265.630343 75.3607342 263.207977 75.5199856 260.814511 76.1500291 258.418419 76.6251724 253.019328 77.6955503 247.643007 78.4978985 242.303468 76.2918759 240.664036 75.6148402 239.519411 74.4139285 238.662913 72.9963305 237.110182 70.4282939 238.39055 67.4808389 241.404058 66.1285079 248.56256 62.9182446 255.952265 60.3919789 263.453191 58.0702162 268.095621 56.6334733 272.536625 54.5405801 277.389238 53.7399723 282.294398 52.9306622 287.241594 52.4981599 292.193169 52.9793948 295.677837 53.3179127 299.200164 53.0751197 302.656808 53.739102 303.078051 53.820033 303.569355 53.8565825 303.960822 53.7216975 308.798548 52.0491234 313.893748 52.3371681 318.874223 51.8620248 322.839687 51.4834766 325.976677 49.3575147 329.378148 47.7780548 338.753211 43.4251849 348.52412 40.5934699 358.808228 39.2411389 367.156895 38.1429138 375.64043 37.6277401 383.701846 34.9100247 387.757513 33.5420296 391.802672 32.1044164 395.732229 30.4205294 398.807915 29.1030074 402.026351 28.4016053 405.256172 28.1918809 415.498243 27.5278985 424.812879 23.9460488 433.997901 19.8020332 440.957605 16.6622582 447.945334 13.5816586 454.932186 10.5019292 455.574998 10.2182356 456.495427 9.42023844 456.873757 10.7255773 457.165387 11.7332988 457.020886 12.6757535 455.698481 13.1265305 444.24873 17.0242722 433.433033 22.4736266 422.119026 26.7098862 416.887206 28.6678944 411.422433 29.4911281 405.910369 29.9062259 398.574086 30.4579491 391.941042 33.1547791 385.30362 35.9795323 380.80394 37.8940292 376.134361 39.1367118 371.16965 39.3290317 366.160274 39.5222218 361.178048 40.0138995 356.2002 40.8319118 346.248883 42.466196 336.651375 45.2213311 327.645009 49.6298954 323.233781 51.7889258 318.977563 53.4336527 313.97607 53.3866606 310.818937 53.3579431 307.622395 53.912277 304.537951 54.9199986 301.229311 56.0008191 297.858492 54.9791739 294.603274 54.5205649 290.798951 53.9845057 287.033162 53.9871164 283.278758 54.3047489 281.336311 54.4692215 279.39474 54.8303653 277.426021 54.8982429 275.207708 54.9748228 273.020923 55.46476 271.079352 56.4254893 266.142665 58.8699538 260.889827 60.199659 255.564301 61.4406011 250.272929 62.6745814 245.720703 65.736036 240.797152 67.8863642 239.014971 68.6643461 238.648025 70.9278036 239.736601 72.5699198 241.060758 74.5679585 243.037359 75.6000464 245.359012 75.9385642 250.401666 76.6739051 255.375135 76.1204414 260.30394 74.9952394 261.749828 74.6654238 262.387385 73.9440065 261.398647 72.5307597 260.820642 71.7040451 260.809257 70.786827 260.856548 69.8130443 261.424044 69.8965859 261.374125 70.3316989 261.489726 70.6162627 262.656245 73.502802 263.363863 73.9936094 266.395761 73.7238394 269.305928 73.4662525 272.163549 72.8527432 274.9695 72.0808529 277.697508 71.3315884 278.430523 70.2124779 278.446287 67.342473 278.452417 65.9736077 278.447162 64.6047424 278.447162 62.8138175 279.360585 65.1112138 279.126756 67.180611 279.576023 69.1333978 279.817735 70.1872414 280.25299 70.9321547 281.297777 71.1079404 286.517336 71.9868685 291.488178 74.1972422 296.958206 73.8056406 298.813076 73.6716258 299.559228 73.113811 299.066172 71.3063519 298.494297 69.2143288 298.687841 67.1475424 299.255337 64.7770471 300.07155 67.8619978 300.061041 70.8625367 301.491165 73.5358706 303.640292 77.5545737 309.104189 80.4794029 313.599491 79.7675581 314.912262 79.5595741 316.249556 79.2323692 316.838945 77.8643741 317.479129 76.3815092 316.457112 75.2815437 315.560329 74.4182796 314.0111 72.9284529 312.863848 71.2123675 311.970568 69.2430463 313.772017 71.2463063 315.725848 73.0659486 318.043122 74.4461268 320.41119 75.8550225 321.899991 75.7123055 323.989566 73.9135486 325.998571 72.1826693 326.048489 71.8841818 324.663905 69.3431223 327.088898 71.7754036 328.664399 70.1298065 330.263546 68.4589728 331.780371 66.8734212 334.27017 66.3164767 334.974285 63.8398138 335.445447 62.1872549 336.181089 60.6086651 336.897465 58.7394199 337.0805 60.0369267 336.590947 60.9611066 336.352739 61.9261871 336.196853 62.5571009 335.964776 63.3098463 336.719685 63.6622877 337.358118 63.9607752 337.760094 63.3081058 338.170827 62.9321682 338.644616 62.4979255 339.065859 62.0079883 339.622846 61.6529362 337.881825 64.5446968 335.407789 66.7202615 332.538783 68.4450492 330.134808 69.8896241 328.258044 71.9007161 326.21576 73.7542973 324.746227 75.090094 323.441337 76.5259667 322.265185 78.1115182 321.696813 78.8781872 320.849949 79.3367963 319.91288 79.6213601 316.198761 80.7483027 312.757005 82.4591667 309.506166 84.5468386 307.162619 86.0523294 304.199906 86.1750312 301.978966 87.9407195 301.524444 88.3009931 300.986724 88.5568395 300.533078 88.9179832 298.59501 90.4600235 298.585377 90.9029684 300.550593 92.4336958 302.752266 94.1506514 304.24457 96.3001093 304.865487 99.0317484 305.136974 100.227439 304.916282 101.123771 303.689335 101.717265 302.125219 102.475232 300.723995 103.553442 299.04165 104.091242 295.099833 105.349588 292.194044 104.189577 290.240213 100.57901 289.909174 99.9672412 289.727015 98.972573 288.817095 99.2458239 287.973733 99.4999299 288.237339 100.473713 288.25573 101.161191 288.35294 104.795254 292.872762 108.571164 297.255966 108.962766 304.755141 109.63284 311.140343 107.043048 316.909007 102.58227 317.951167 101.776441 318.904875 101.475343 320.095039 102.055783L320.038115 102.010532z"/>
    <path fill="#8E7DBE" d="M321.315604 100C320.676333 99.1176109 321.085398 98.5531606 321.853892 98.0575245 327.225647 94.5880715 332.823328 91.6821978 339.011501 89.9270013 342.300278 88.9932194 345.454697 89.3442587 348.709243 89.6778767 358.636335 90.697023 368.352048 90.3390152 377.239363 84.8574015 383.214445 81.1719244 386.726582 75.6214965 388.861762 69.0527934 391.104772 62.1556986 388.533141 56.1566722 385.276884 50.3179217 385.084333 49.9712378 384.634191 49.7142735 384.902907 49 387.702175 52.3483749 389.88528 55.9301952 391.19035 60.0050385 391.765437 61.8011751 392.523661 61.9527404 393.953676 60.9274966 395.630156 59.7245555 397.495765 58.9196912 399.651484 58.9284019 398.473926 59.5590531 397.270694 60.1478932 396.129934 60.8412612 395.61732 61.1522315 394.808604 61.6043143 395.150917 62.3002955 395.541155 63.0894806 396.220647 62.5372252 396.793167 62.2367077 401.686538 59.6714205 407.018927 58.9231755 413 58.2332918 411.213123 59.183624 409.818196 59.4231669 408.471192 59.5808297 400.639915 60.4963193 394.985751 64.7610548 390.416722 71.0745359 387.971747 74.453398 385.754411 77.9916651 383.158819 81.2773233 379.494353 85.9131326 374.642059 88.3817315 369.315661 90.217066 368.642159 90.4487694 367.980638 90.7222839 367.326819 91.0071222 367.085488 91.1116501 366.880956 91.3050266 366.485584 91.5785411 368.96051 92.9844404 371.004978 91.3024134 373.502155 91.0498044 370.978449 92.711797 368.459877 93.2614391 365.896804 93.6647424 365.262669 93.7649149 364.493319 93.7100377 364.249421 94.4269245 364.002955 95.1481665 364.691861 95.5715042 365.085521 96.0688825 365.8814 97.0758339 366.661019 98.0941092 367.299434 99.305761 364.710688 95.2526943 360.261468 94.4452168 356.358238 92.9321765 353.708732 91.9051905 350.657862 91.9409042 347.782429 91.5358589 347.291209 91.4670447 346.728959 91.5585066 346.494474 92.1020513 346.237739 92.6935046 346.7572 93.0218962 347.078119 93.3790329 348.856438 95.35548 350.645026 97.3214743 352.900016 98.9024578 351.838844 98.3623973 350.679257 97.958223 349.737039 97.2526602 347.966422 95.9234146 346.00411 94.9652428 344.13679 93.8363422 340.273782 91.5010162 336.692327 92.5837504 333.085198 94.0349451 331.110905 94.8284855 331.1323 95.7117457 332.790809 97.1350664 333.637179 97.8615348 334.737717 98.3380075 335.275149 99.8022682 330.425422 96.969564 325.805901 97.3101505 321.25741 99.9520914 321.259978 99.9547046 321.315604 100 321.315604 100M408 67.9606931C410.879218 65.7524454 414.065109 64.9062651 417.363154 64.7133317 420.130218 64.5518549 422.893777 64.7101861 425.666098 65.0572563 429.90519 65.5867744 434.111863 64.8464977 438.299259 64.0338709 441.165334 63.4791876 444.046304 63.0325051 447 63 445.37814 63.4728963 443.777308 64.159697 442.131791 64.3798926 436.204246 65.1736455 430.317884 66.2788178 424.435902 67.4269808 423.258279 67.6566134 422.107818 67.690167 420.963491 67.349388 417.928308 66.4434403 414.816895 66.8754432 411.850932 67.3441453 410.646147 67.533933 409.350236 68.1620148 408 67.9606931"/>
    <g transform="translate(0 90)">
      <mask id="hands-b" fill="#fff">
        <use xlink:href="#hands-a"/>
      </mask>
      <path fill="#000" d="M21.646856,0.39643913 C14.437016,6.30461304 7.265896,12.232613 0.504856,18.9660478 C-0.161304,17.3213087 -0.325864,16.0664826 0.996776,15.0148739 C7.581816,9.77996087 14.241656,4.63674348 21.646856,0.39643913" mask="url(#hands-b)"/>
    </g>
    <path fill="#8E7DBE" d="M172.322552 90.1140682C172.451665 87.8291281 168.672891 84.2496067 165.955323 84.0835928 164.498819 83.9952701 161.30813 88.2781016 161.171942 90.5057956 161.08793 91.8715257 164.818065 94.3535562 167.057207 94.420616 169.727906 94.499125 172.188132 92.4881487 172.322552 90.1140682M167.311012 94.9996201C164.749971 95.0380568 159.964822 92.1503963 160.000195 90.5875758 160.046181 88.5406162 164.222906 82.9959155 165.716552 83.0000023 168.196234 83.0065469 172.9522 87.3400822 172.99907 89.6356537 173.056552 92.4865131 170.44245 94.9521876 167.311012 94.9996201M445 76.7298068C436.994828 77.4610364 428.999138 76.557951 421 75.7997635 429.037931 73.3825497 436.972414 77.2667158 445 76.7298068M112 34C106.421402 31.281586 103.542614 25.8099886 99 22 105.614583 23.654289 107.519886 30.1149828 112 34"/>
  </g>
</svg>
