<svg xmlns="http://www.w3.org/2000/svg" viewBox="0 0 195.67 34.69"><defs><style>.a{fill:#fff;}</style></defs><path class="a" d="M6.76,11.31a9.26,9.26,0,0,1,4.45-1,10,10,0,0,1,5,1.2,8.2,8.2,0,0,1,3.33,3.4A10.55,10.55,0,0,1,20.7,20V34.69H16.1V21.18a6.82,6.82,0,0,0-1.73-5.06,6,6,0,0,0-4.4-1.7,4.63,4.63,0,0,0-2.81.91,5.89,5.89,0,0,0-1.89,2.59,10.18,10.18,0,0,0-.67,3.83V34.69H0V.43H4.6V13.89L4.31,14A4.84,4.84,0,0,1,6.76,11.31Z"/><path class="a" d="M27.09,5.49a2.91,2.91,0,0,1-.88-2.14,2.9,2.9,0,0,1,.88-2.13,3,3,0,0,1,4.27,0,2.9,2.9,0,0,1,.88,2.13,2.91,2.91,0,0,1-.88,2.14,3,3,0,0,1-4.27,0Zm4.44,5.24v24h-4.6v-24Z"/><path class="a" d="M42,.58V34.69h-4.6V.58Z"/><path class="a" d="M52.46.58V34.69h-4.6V.58Z"/><path class="a" d="M76,32.84a12.48,12.48,0,0,1-12.67.24,11.11,11.11,0,0,1-4.19-4.43,13.35,13.35,0,0,1-1.51-6.42,13.4,13.4,0,0,1,1.51-6.42,11.17,11.17,0,0,1,4.19-4.43A12.48,12.48,0,0,1,76,11.62a10.88,10.88,0,0,1,4.15,5.2l-4.36,1.53a6.47,6.47,0,0,0-2.47-3,7.21,7.21,0,0,0-3.9-1,6.69,6.69,0,0,0-5.25,2.16,8.22,8.22,0,0,0-1.94,5.7,8.22,8.22,0,0,0,1.94,5.7,6.69,6.69,0,0,0,5.25,2.16,7.38,7.38,0,0,0,3.9-1,6.36,6.36,0,0,0,2.47-2.95l4.36,1.49A10.91,10.91,0,0,1,76,32.84Z"/><path class="a" d="M89.55.58V34.69H85V.58Z"/><path class="a" d="M162.56,31.24h.15l-.05.05a8.91,8.91,0,0,1-2.28,2.42,7.14,7.14,0,0,1-4.14,1A8.31,8.31,0,0,1,149.7,32a10.63,10.63,0,0,1-2.42-7.35V10.16h4.6V22.71a10.94,10.94,0,0,0,1.27,5.89,4.2,4.2,0,0,0,3.76,2A4.89,4.89,0,0,0,161,28.82a8.13,8.13,0,0,0,1.39-5.15V10.16H167v24h-3.78Z"/><path class="a" d="M195.67,34.11h-3.78l-.63-3.3h-.09a8.74,8.74,0,0,1-3.31,2.78,9.38,9.38,0,0,1-4.26,1.1,10.8,10.8,0,0,1-5.85-1.63,11.32,11.32,0,0,1-4.05-4.5,14,14,0,0,1-1.46-6.42,14,14,0,0,1,1.46-6.43,11.32,11.32,0,0,1,4.05-4.5,10.8,10.8,0,0,1,5.85-1.63,9.07,9.07,0,0,1,4.55,1.15,7,7,0,0,1,2.92,3.07V0h4.6Zm-6.52-6.06a8.84,8.84,0,0,0,1.92-5.91,8.87,8.87,0,0,0-1.92-5.92,6.29,6.29,0,0,0-5.07-2.28A6.77,6.77,0,0,0,180.32,15a7,7,0,0,0-2.57,2.92,9.58,9.58,0,0,0-.91,4.22,9.6,9.6,0,0,0,.91,4.21,7,7,0,0,0,2.57,2.92,6.77,6.77,0,0,0,3.76,1.06A6.29,6.29,0,0,0,189.15,28.05Z"/><path class="a" d="M129.75,34.69H107.49a12.87,12.87,0,0,1-13-11.83A12.6,12.6,0,0,1,105.61,9.58l0,0a10.84,10.84,0,0,1,21.21-.09s0,0,0,0h2.46a12.87,12.87,0,0,1,13,11.42A12.62,12.62,0,0,1,129.75,34.69ZM107.07,14A8.11,8.11,0,0,0,99,22.61a8.32,8.32,0,0,0,8.4,7.58h22a8.33,8.33,0,0,0,8.41-7.58A8.12,8.12,0,0,0,129.75,14h-7.12a0,0,0,0,1,0,0V12a6.52,6.52,0,0,0-5.53-6.54,6.35,6.35,0,0,0-7.14,6.29V14a0,0,0,0,1,0,0Z"/></svg>