<?xml version="1.0" encoding="utf-8"?>
<!-- Generator: Adobe Illustrator 25.2.0, SVG Export Plug-In . SVG Version: 6.00 Build 0)  -->
<svg version="1.1" id="Ebene_1" xmlns="http://www.w3.org/2000/svg" xmlns:xlink="http://www.w3.org/1999/xlink" x="0px" y="0px"
	 viewBox="0 0 122.3 114.3" style="enable-background:new 0 0 122.3 114.3;" xml:space="preserve">
<style type="text/css">
	.st0{fill:#141313;}
</style>
<g>
	<path class="st0" d="M30.8,37.8c-0.7,1-1.4,1.7-2.2,2.2c-0.8,0.5-1.7,0.8-2.5,0.9l-0.5-2.7c1.4-0.2,2.5-0.8,3.2-2
		c0.4-0.6,0.6-1.1,0.5-1.6s-0.3-0.8-0.7-1.1c-0.3-0.2-0.6-0.3-1-0.3c-0.3,0-0.7,0.3-1.1,0.8l-0.9,1c-1,1.1-1.9,1.7-2.9,1.9
		s-1.9-0.1-2.9-0.7c-0.5-0.3-0.9-0.8-1.2-1.2c-0.3-0.5-0.5-1-0.5-1.6c-0.1-0.6,0-1.2,0.2-1.8c0.2-0.6,0.5-1.3,1-2
		c0.6-0.9,1.2-1.5,1.9-2c0.7-0.5,1.5-0.8,2.3-0.9l0.5,2.8c-0.5,0.1-1,0.2-1.4,0.5c-0.5,0.3-0.9,0.7-1.3,1.3c-0.4,0.6-0.6,1-0.5,1.4
		c0,0.4,0.2,0.7,0.5,1C21.7,34,22,34,22.4,34c0.3-0.1,0.7-0.4,1.1-0.8l0.9-1c1-1,1.9-1.7,2.9-1.9c0.9-0.2,1.9,0,2.9,0.7
		c0.5,0.4,1,0.8,1.3,1.3c0.3,0.5,0.5,1.1,0.6,1.7c0.1,0.6,0,1.2-0.2,1.9C31.7,36.4,31.3,37.1,30.8,37.8z"/>
	<path class="st0" d="M35.7,17.6l6.2,9.2l-2.5,1.7l-6.2-9.2l-3.1,2.1l-1.5-2.2l8.6-5.8l1.5,2.2L35.7,17.6z"/>
	<path class="st0" d="M49.5,8.9l1.6,8.3c0.2,1,0.5,1.6,1,2s1.1,0.5,2,0.3s1.5-0.5,1.7-1.1c0.3-0.5,0.3-1.3,0.2-2.2l-1.6-8.3l2.9-0.5
		l1.5,8c0.2,1,0.3,1.9,0.2,2.6s-0.2,1.4-0.6,2c-0.3,0.6-0.8,1-1.4,1.4c-0.6,0.4-1.4,0.6-2.4,0.8c-1,0.2-1.8,0.2-2.5,0.1
		s-1.3-0.3-1.8-0.7c-0.5-0.4-0.9-0.9-1.3-1.6c-0.3-0.7-0.6-1.5-0.8-2.5l-1.5-8L49.5,8.9z"/>
	<path class="st0" d="M68.7,7.7l5,1.3c0.9,0.2,1.6,0.6,2.3,1c0.7,0.5,1.2,1,1.5,1.7c0.4,0.7,0.6,1.5,0.7,2.4c0.1,0.9,0,1.9-0.3,3
		s-0.7,2-1.2,2.8s-1.1,1.4-1.7,1.8s-1.4,0.7-2.2,0.8c-0.8,0.1-1.6,0-2.5-0.2l-5-1.3L68.7,7.7z M71,19.7c0.9,0.2,1.6,0.1,2.2-0.2
		s1.1-1.1,1.3-2.1l0.5-2.1c0.3-1.1,0.2-1.9-0.2-2.5s-1-1-1.9-1.2L71,11l-2.1,8.2L71,19.7z"/>
	<path class="st0" d="M80.3,26.2l1.4-1.9l1.4,1l5.2-7.3l-1.4-1l1.4-1.9l5.3,3.8l-1.4,1.9l-1.4-1l-5.2,7.3l1.4,1L85.6,30L80.3,26.2z"
		/>
	<path class="st0" d="M92.4,38.2c-0.5-0.8-0.8-1.5-1-2.3s-0.1-1.6,0.1-2.3s0.6-1.5,1.2-2.2s1.4-1.4,2.3-2c1-0.6,1.9-1.1,2.8-1.3
		c0.9-0.2,1.7-0.3,2.5-0.2c0.8,0.1,1.5,0.4,2.2,0.9s1.2,1.1,1.7,1.8c0.5,0.8,0.8,1.5,1,2.3s0.1,1.6-0.1,2.3
		c-0.2,0.8-0.6,1.5-1.2,2.2s-1.4,1.4-2.3,2c-1,0.6-1.9,1.1-2.8,1.3s-1.7,0.3-2.5,0.2s-1.5-0.4-2.2-0.9
		C93.5,39.6,92.9,38.9,92.4,38.2z M94.6,36.7c0.5,0.8,1.1,1.2,1.9,1.3s1.6-0.2,2.5-0.8l1.7-1.1c0.9-0.6,1.5-1.3,1.7-2
		s0.1-1.5-0.4-2.3s-1.1-1.2-1.9-1.3c-0.8-0.1-1.6,0.2-2.5,0.8l-1.7,1.1c-0.9,0.6-1.5,1.3-1.7,2C94,35.2,94.1,36,94.6,36.7z"/>
	<path class="st0" d="M98.2,63.1c0.1-0.9,0.3-1.7,0.7-2.5c0.4-0.7,0.9-1.3,1.5-1.8s1.4-0.8,2.3-1s1.9-0.2,3.1-0.1
		c1.1,0.1,2.2,0.4,3,0.8c0.9,0.4,1.6,0.9,2.1,1.5s0.9,1.3,1.2,2c0.2,0.8,0.3,1.6,0.2,2.6c-0.1,1.3-0.5,2.3-1.1,3
		c-0.6,0.8-1.5,1.3-2.7,1.7l-1.1-2.7c0.6-0.1,1.1-0.4,1.5-0.7c0.4-0.3,0.6-0.9,0.7-1.6c0.1-0.9-0.1-1.6-0.6-2.2s-1.3-0.9-2.4-1.1
		l-2.2-0.2c-1.1-0.1-1.9,0.1-2.6,0.5c-0.6,0.5-1,1.1-1.1,2c-0.1,0.7,0.1,1.3,0.4,1.8s0.8,0.9,1.3,1.1l-1.7,2.3
		c-1-0.6-1.7-1.4-2.2-2.3S98,64.3,98.2,63.1z"/>
	<path class="st0" d="M93.4,77.1c0.5-0.8,1-1.4,1.6-1.9s1.3-0.8,2.1-1s1.6-0.1,2.5,0.1s1.9,0.6,2.9,1.2s1.8,1.2,2.4,1.9
		c0.6,0.7,1.1,1.4,1.3,2.2c0.2,0.8,0.3,1.5,0.2,2.3s-0.4,1.6-0.9,2.4s-1,1.4-1.6,1.9s-1.3,0.8-2.1,1s-1.6,0.1-2.5-0.1
		s-1.9-0.6-2.9-1.2S94.6,84.7,94,84c-0.6-0.7-1.1-1.4-1.3-2.2s-0.3-1.5-0.2-2.3C92.6,78.7,92.9,77.9,93.4,77.1z M95.7,78.4
		c-0.5,0.8-0.6,1.5-0.3,2.3c0.3,0.7,0.9,1.4,1.8,1.9l1.8,1c1,0.6,1.8,0.8,2.6,0.6c0.8-0.1,1.4-0.6,1.8-1.4c0.5-0.8,0.6-1.5,0.3-2.3
		s-0.9-1.4-1.8-1.9l-1.8-1c-1-0.6-1.8-0.8-2.6-0.6C96.7,77.2,96.1,77.7,95.7,78.4z"/>
	<path class="st0" d="M87.2,93.8l2.6,1.5l0,0l-5.2-7.7l2.3-1.6l7.7,11.4l-2.7,1.8l-6.8-3.3l-2.6-1.5l0,0l5.2,7.7l-2.3,1.6l-7.7-11.4
		l2.7-1.8L87.2,93.8z"/>
	<path class="st0" d="M69.3,101.4l1.7,2.5h0.1l-1.4-9.1l2.8-0.4l2,13.6l-3.2,0.5l-4.7-5.9l-1.7-2.5h-0.1l1.4,9.1l-2.8,0.4l-2-13.6
		l3.2-0.5L69.3,101.4z"/>
	<path class="st0" d="M55.8,95.4l-3.7,13.2l-9-2.5l0.7-2.6l6.1,1.7l0.8-2.7l-5.2-1.5l0.7-2.6l5.2,1.5l0.8-2.9l-6.1-1.7l0.7-2.6
		L55.8,95.4z"/>
	<path class="st0" d="M37.9,86.9c0.7,0.6,1.3,1.2,1.7,1.9c0.4,0.7,0.6,1.4,0.7,2.2s-0.1,1.6-0.4,2.5s-0.8,1.7-1.6,2.7
		c-0.7,0.9-1.5,1.6-2.3,2.1s-1.6,0.9-2.4,1c-0.8,0.2-1.6,0.1-2.4-0.1c-0.8-0.2-1.5-0.6-2.3-1.2c-1-0.8-1.7-1.7-2-2.6s-0.3-2,0-3.2
		l2.9,0.6c-0.2,0.6-0.3,1.1-0.2,1.6c0.1,0.5,0.4,1,1,1.5c0.7,0.5,1.4,0.8,2.2,0.6c0.8-0.1,1.5-0.6,2.2-1.4l1.4-1.7
		c0.7-0.9,1-1.7,0.9-2.4c-0.1-0.8-0.4-1.4-1.1-2c-0.6-0.5-1.2-0.7-1.8-0.6c-0.6,0-1.1,0.2-1.7,0.5l-1-2.6c1.1-0.5,2.1-0.7,3.1-0.6
		C35.9,85.7,36.9,86.1,37.9,86.9z"/>
	<path class="st0" d="M18.4,80.3l9.7-5.3l1.4,2.6l-9.7,5.3l1.8,3.3l-2.3,1.3l-5-9.2l2.3-1.3L18.4,80.3z"/>
	<path class="st0" d="M24,57.8l1.1,9.7l-2.7,0.3L18.3,64c-0.4-0.3-0.7-0.6-1-0.9c-0.3-0.2-0.6-0.4-0.9-0.5s-0.5-0.2-0.8-0.3
		c-0.3,0-0.5,0-0.8,0h-0.3c-0.3,0-0.5,0.1-0.7,0.2s-0.3,0.3-0.4,0.5s-0.2,0.4-0.2,0.6s0,0.4,0,0.7c0,0.3,0.1,0.6,0.3,0.8
		c0.1,0.2,0.3,0.4,0.5,0.6s0.4,0.3,0.7,0.4c0.2,0.1,0.5,0.2,0.8,0.2L14.8,69c-0.5-0.1-1-0.3-1.4-0.5c-0.5-0.2-0.9-0.5-1.2-0.9
		c-0.4-0.4-0.7-0.8-0.9-1.4s-0.4-1.2-0.5-1.9c-0.1-0.7-0.1-1.4,0.1-2c0.1-0.6,0.4-1.1,0.7-1.6c0.3-0.4,0.7-0.8,1.2-1.1
		s1-0.4,1.6-0.5s1.1,0,1.6,0.1s1,0.3,1.5,0.6s0.9,0.6,1.3,1s0.9,0.8,1.3,1.3l2.3,2.3L21.6,58L24,57.8z"/>
</g>
</svg>
