<?xml version="1.0" encoding="utf-8"?>
<!-- Generator: Adobe Illustrator 26.2.1, SVG Export Plug-In . SVG Version: 6.00 Build 0)  -->
<svg version="1.1" id="Ebene_1" xmlns="http://www.w3.org/2000/svg" xmlns:xlink="http://www.w3.org/1999/xlink" x="0px" y="0px"
	 viewBox="0 0 382.4 67.9" style="enable-background:new 0 0 382.4 67.9;" xml:space="preserve">
<style type="text/css">
	.st0{fill:#FFFFFF;}
	.st1{fill:#CD2523;}
</style>
<g>
	<path class="st0" d="M39.6,34.3c0,11-8.5,19.7-19.8,19.7C8.5,53.9,0,45.2,0,34.3c0-11,8.5-19.7,19.8-19.7
		C31.1,14.6,39.6,23.2,39.6,34.3z M30,34.3c0-5.8-3.9-10.7-10.2-10.7c-6.2,0-10.1,4.8-10.1,10.7c0,5.8,3.9,10.7,10.1,10.7
		C26,44.9,30,40.1,30,34.3z"/>
	<path class="st0" d="M68,53L54.7,35.2V53h-9.3V1.2h9.3v30.2l11.7-15.9h10.8L63.8,32.8L79.5,53H68z"/>
	<path class="st0" d="M119.2,1.2V53h-9.4v-4.4c-2.4,3-6.1,5.3-12,5.3c-11.6,0-18.3-9.8-18.3-19.7c0-9.8,6.7-19.7,18.3-19.7
		c5.8,0,9.5,2.2,12,5.3V1.2H119.2z M109.3,34.3c0-5.8-3.6-10.7-10.1-10.7s-10.1,4.9-10.1,10.7s3.7,10.7,10.1,10.7
		S109.3,40,109.3,34.3z"/>
	<path class="st0" d="M162.8,37.9H135c1.3,5,5.5,7.7,10.7,7.7c4.3,0,7.3-2.3,8.4-3.7l7.5,4.4c-3,4.2-8.8,7.6-15.9,7.6
		c-12.4,0-20.6-8.3-20.6-19.7c0-11.8,8.8-19.7,19.2-19.7C155.5,14.6,164.5,23.1,162.8,37.9z M153.6,30.6c-1-4.9-4.3-7.7-9.3-7.7
		c-4.6,0-8.2,2.9-9.3,7.7H153.6z"/>
	<path class="st0" d="M198.9,41.4c0,7.4-5.4,12.5-15.9,12.5c-7.2,0-14.4-2.9-16.1-9.2l9-2.8c0.3,1.6,1.8,4.1,7.3,4.1
		c3.9,0,6.1-1.4,6.1-3.9c0-3.6-5.4-3.4-9.8-4.4c-7.3-1.5-11-5-11-11.4c0-7.1,5.9-11.8,14.7-11.8c6.4,0,12.8,3.2,14.4,9.7l-8.5,2.1
		c-0.4-1.9-2.3-3.8-5.8-3.8c-2.7,0-5.6,1-5.6,3.8c0,3.3,5,3.6,8,4.2C194.9,32.6,198.9,35.1,198.9,41.4z"/>
	<path class="st0" d="M204,5c0-2.7,2.2-5,5-5c2.8,0,5,2.2,5,5c0,2.8-2.2,5-5,5C206.2,10,204,7.8,204,5z M204.3,15.5h9.4V53h-9.4
		V15.5z"/>
	<path class="st0" d="M258.9,15.5v33.5c0,10.5-7,19-20.4,19c-7.7,0-14.7-3.2-17.8-7.5l7.6-4.5c1.4,1.9,4.8,3.7,9.8,3.7
		c7.3,0,11.2-4,11.2-11.3v-2.7c-2.3,3.3-6,5.8-11.8,5.8c-11.3,0-18.2-8.7-18.2-18.4c0-9.7,6.9-18.4,18.2-18.4
		c5.8,0,9.5,2.5,11.8,5.8v-4.9H258.9z M249.1,32.9c0-5.5-3.7-10-10-10c-6.1,0-10,4.4-10,10c0,5.6,3.9,10,10,10
		C245.4,42.9,249.1,38.4,249.1,32.9z"/>
	<path class="st0" d="M298.8,30.2V53h-9.4V32.1c0-4.8-2-8.4-7.3-8.4c-5.6,0-8,4.1-8,8.4V53h-9.3V15.5h9.3v4.6c2.1-3,5.5-5.5,11-5.5
		C294.5,14.6,298.8,22.3,298.8,30.2z"/>
	<path class="st0" d="M334.9,41.4c0,7.4-5.4,12.5-15.9,12.5c-7.2,0-14.4-2.9-16.1-9.2l9-2.8c0.3,1.6,1.8,4.1,7.3,4.1
		c3.9,0,6.1-1.4,6.1-3.9c0-3.6-5.4-3.4-9.8-4.4c-7.3-1.5-11-5-11-11.4c0-7.1,5.9-11.8,14.7-11.8c6.4,0,12.8,3.2,14.4,9.7l-8.5,2.1
		c-0.4-1.9-2.3-3.8-5.8-3.8c-2.7,0-5.6,1-5.6,3.8c0,3.3,5,3.6,8,4.2C330.8,32.6,334.9,35.1,334.9,41.4z"/>
</g>
<rect x="340.6" y="46" class="st1" width="41.8" height="7"/>
</svg>
