<svg xmlns="http://www.w3.org/2000/svg" width="165" height="82" viewBox="0 0 165 82">
  <g fill="#817FF9" fill-rule="evenodd">
    <path d="M43.2381241,42.749047 C43.1011241,42.469047 42.9651241,42.188047 42.8281241,41.907047 C38.5071241,43.452047 34.1871241,44.997047 29.8661241,46.541047 C29.9481241,46.757047 30.0301241,46.973047 30.1111241,47.188047 C34.4871241,45.708047 38.8631241,44.229047 43.2381241,42.749047 M64.5321241,35.303047 C64.6121241,35.521047 64.6921241,35.739047 64.7721241,35.957047 C85.5531241,30.801047 106.335124,25.644047 127.117124,20.488047 C127.067124,20.283047 127.016124,20.078047 126.966124,19.873047 C106.155124,25.016047 85.3431241,30.160047 64.5321241,35.303047 M46.8711241,27.169047 C46.7671241,26.961047 46.6631241,26.753047 46.5581241,26.546047 C32.4441241,31.340047 18.4281241,36.363047 5.17812408,44.435047 C19.3901241,38.549047 33.1311241,32.859047 46.8711241,27.169047 M48.3931241,79.679047 C47.6341241,80.303047 46.8751241,80.926047 46.2051241,81.476047 C44.5091241,81.170047 42.8851241,80.878047 41.2611241,80.585047 C41.2411241,80.360047 41.2201241,80.134047 41.1991241,79.908047 C40.5661241,80.476047 39.9331241,81.045047 39.1841241,81.717047 C36.6981241,79.512047 34.4211241,77.468047 35.5171241,73.453047 C37.6641241,65.587047 39.4881241,57.635047 41.4351241,49.716047 C41.8631241,47.978047 42.2471241,46.231047 42.7851241,43.913047 C39.5391241,45.006047 36.7101241,45.794047 34.0221241,46.921047 C32.1831241,47.693047 30.5471241,48.945047 28.8081241,49.961047 C28.3481241,50.230047 27.8601241,50.473047 27.3561241,50.641047 C22.6561241,52.206047 17.9621241,53.784047 13.2431241,55.287047 C11.3561241,55.888047 9.41312408,56.311047 7.49612408,56.816047 C7.56512408,56.482047 7.63412408,56.148047 7.70312408,55.814047 C6.29012408,54.777047 4.97612408,53.551047 3.44312408,52.740047 C-0.311875922,50.752047 -1.32787592,45.544047 2.06812408,42.918047 C5.91512408,39.943047 10.0041241,37.045047 14.4201241,35.091047 C24.6921241,30.544047 35.1991241,26.522047 45.6721241,22.443047 C47.5701241,21.704047 48.5101241,20.816047 49.0631241,18.787047 C50.3231241,14.160047 51.8141241,9.56904699 53.6241241,5.13104699 C54.3131241,3.44304699 56.0931241,2.17604699 57.4671241,0.810046986 C57.7911241,0.488046986 58.5901241,0.293046986 58.9891241,0.463046986 C60.6001241,1.15004699 62.1431241,1.99804699 63.7071241,2.79504699 C67.6111241,4.78904699 68.7731241,8.13604699 68.4131241,12.263047 C68.3291241,13.220047 68.4011241,14.191047 68.4011241,15.465047 C74.9891241,13.912047 81.1821241,12.190047 87.4761241,11.015047 C106.119124,7.53504699 124.784124,4.17004699 143.480124,0.990046986 C148.111124,0.203046986 152.887124,0.239046986 157.602124,0.00504698619 C158.698124,-0.0489530138 159.817124,0.344046986 160.925124,0.531046986 C160.984124,0.883046986 161.044124,1.23604699 161.103124,1.58804699 C158.784124,2.26304699 156.495124,3.38304699 154.141124,3.54104699 C139.252124,4.54004699 124.668124,7.44304699 110.130124,10.527047 C96.8141241,13.353047 83.5961241,16.637047 70.3401241,19.737047 C69.4221241,19.952047 68.5411241,20.319047 67.6421241,20.616047 C67.6961241,20.857047 67.7491241,21.099047 67.8031241,21.341047 C68.4981241,21.235047 69.2011241,21.167047 69.8871241,21.018047 C89.5731241,16.716047 109.200124,12.119047 128.965124,8.21704699 C139.181124,6.20104699 149.637124,5.39304699 159.994124,4.11404699 C160.964124,3.99504699 162.001124,4.42004699 163.007124,4.59204699 C162.521124,5.39904699 162.035124,6.20704699 161.481124,7.12804699 C166.484124,6.16804699 163.224124,10.233047 163.941124,12.094047 C163.309124,12.422047 162.314124,12.938047 161.035124,13.602047 C161.852124,13.798047 162.344124,13.916047 162.837124,14.035047 C162.857124,14.174047 162.877124,14.313047 162.898124,14.453047 C158.798124,15.247047 154.697124,16.040047 150.597124,16.833047 C150.535124,16.624047 150.473124,16.415047 150.411124,16.206047 C151.739124,15.885047 153.067124,15.564047 154.394124,15.243047 C154.341124,15.051047 154.288124,14.858047 154.235124,14.666047 L135.825124,18.157047 C135.842124,18.365047 135.860124,18.572047 135.877124,18.779047 C137.612124,18.550047 139.346124,18.320047 141.081124,18.091047 C141.128124,18.285047 141.175124,18.479047 141.221124,18.673047 C139.316124,19.123047 137.405124,19.555047 135.505124,20.025047 C112.230124,25.781047 88.9571241,31.549047 65.6781241,37.292047 C63.9391241,37.721047 62.7011241,38.411047 62.5241241,40.457047 C62.4731241,41.042047 61.5831241,41.549047 61.0921241,42.106047 C60.8641241,42.365047 60.4311241,42.801047 60.4981241,42.909047 C62.8221241,46.734047 59.1811241,49.658047 58.9661241,53.090047 C58.9161241,53.882047 58.7051241,54.829047 58.2101241,55.385047 C57.6401241,56.027047 58.5381241,58.424047 56.2671241,57.198047 C55.8741241,58.382047 55.4811241,59.568047 55.0881241,60.753047 C53.2401241,65.302047 51.3181241,69.824047 49.5841241,74.416047 C48.9551241,76.083047 48.7771241,77.920047 48.3931241,79.679047"/>
    <path d="M50.7069241,74.327647 C51.7859241,71.231647 52.9029241,68.148647 53.9259241,65.035647 C54.3889241,63.625647 54.6649241,62.154647 55.0259241,60.711647 C55.4099241,60.383647 55.7939241,60.056647 56.1779241,59.727647 C56.3989241,59.841647 56.6209241,59.953647 56.8419241,60.066647 C54.7969241,64.820647 52.7519241,69.574647 50.7069241,74.327647"/>
  </g>
</svg>
