<?xml version="1.0" encoding="utf-8"?>
<!-- Generator: Adobe Illustrator 25.2.0, SVG Export Plug-In . SVG Version: 6.00 Build 0)  -->
<svg version="1.1" id="Ebene_1" xmlns="http://www.w3.org/2000/svg" xmlns:xlink="http://www.w3.org/1999/xlink" x="0px" y="0px"
	 viewBox="0 0 125.1 125.3" style="enable-background:new 0 0 125.1 125.3;" xml:space="preserve">
<style type="text/css">
	.st0{fill:#111010;}
	.st1{fill:#FFFFFF;}
</style>
<circle class="st0" cx="62.1" cy="62.5" r="61.7"/>
<g>
	<path class="st1" d="M31.4,41.8c-0.7,1-1.4,1.7-2.2,2.2c-0.8,0.5-1.7,0.8-2.5,0.9l-0.5-2.7c1.4-0.2,2.5-0.8,3.2-2
		c0.4-0.6,0.6-1.1,0.5-1.6s-0.3-0.8-0.7-1.1c-0.3-0.2-0.6-0.3-1-0.3c-0.3,0-0.7,0.3-1.1,0.8l-0.9,1c-1,1.1-1.9,1.7-2.9,1.9
		s-1.9-0.1-2.9-0.7c-0.5-0.3-0.9-0.8-1.2-1.2c-0.3-0.5-0.5-1-0.5-1.6c-0.1-0.6,0-1.2,0.2-1.8s0.5-1.3,1-2c0.6-0.9,1.2-1.5,1.9-2
		c0.7-0.5,1.5-0.8,2.3-0.9l0.5,2.8c-0.5,0.1-1,0.2-1.4,0.5c-0.5,0.3-0.9,0.7-1.3,1.3s-0.6,1-0.5,1.4c0,0.4,0.2,0.7,0.5,1
		C22.3,38,22.6,38,23,38c0.3-0.1,0.7-0.4,1.1-0.8l0.9-1c1-1,1.9-1.7,2.9-1.9c0.9-0.2,1.9,0,2.9,0.7c0.5,0.4,1,0.8,1.3,1.3
		s0.5,1.1,0.6,1.7c0.1,0.6,0,1.2-0.2,1.9C32.3,40.4,31.9,41.1,31.4,41.8z"/>
	<path class="st1" d="M36.3,21.6l6.2,9.2L40,32.5l-6.2-9.2l-3.1,2.1l-1.5-2.2l8.6-5.8l1.5,2.2L36.3,21.6z"/>
	<path class="st1" d="M50.1,12.9l1.6,8.3c0.2,1,0.5,1.6,1,2s1.1,0.5,2,0.3s1.5-0.5,1.7-1.1c0.3-0.5,0.3-1.3,0.2-2.2L55,11.9l2.9-0.5
		l1.5,8c0.2,1,0.3,1.9,0.2,2.6s-0.2,1.4-0.6,2c-0.3,0.6-0.8,1-1.4,1.4c-0.6,0.4-1.4,0.6-2.4,0.8c-1,0.2-1.8,0.2-2.5,0.1
		s-1.3-0.3-1.8-0.7c-0.5-0.4-0.9-0.9-1.3-1.6c-0.3-0.7-0.6-1.5-0.8-2.5l-1.5-8L50.1,12.9z"/>
	<path class="st1" d="M69.3,11.7l5,1.3c0.9,0.2,1.6,0.6,2.3,1c0.7,0.5,1.2,1,1.5,1.7c0.4,0.7,0.6,1.5,0.7,2.4s0,1.9-0.3,3
		s-0.7,2-1.2,2.8s-1.1,1.4-1.7,1.8s-1.4,0.7-2.2,0.8c-0.8,0.1-1.6,0-2.5-0.2l-5-1.3L69.3,11.7z M71.6,23.7c0.9,0.2,1.6,0.1,2.2-0.2
		c0.6-0.3,1.1-1.1,1.3-2.1l0.5-2.1c0.3-1.1,0.2-1.9-0.2-2.5c-0.4-0.6-1-1-1.9-1.2L71.6,15l-2.1,8.2L71.6,23.7z"/>
	<path class="st1" d="M80.9,30.2l1.4-1.9l1.4,1l5.2-7.3l-1.4-1l1.4-1.9l5.3,3.8l-1.4,1.9l-1.4-1l-5.2,7.3l1.4,1L86.2,34L80.9,30.2z"
		/>
	<path class="st1" d="M93,42.2c-0.5-0.8-0.8-1.5-1-2.3s-0.1-1.6,0.1-2.3s0.6-1.5,1.2-2.2s1.4-1.4,2.3-2c1-0.6,1.9-1.1,2.8-1.3
		s1.7-0.3,2.5-0.2s1.5,0.4,2.2,0.9s1.2,1.1,1.7,1.8c0.5,0.8,0.8,1.5,1,2.3s0.1,1.6-0.1,2.3c-0.2,0.8-0.6,1.5-1.2,2.2s-1.4,1.4-2.3,2
		c-1,0.6-1.9,1.1-2.8,1.3s-1.7,0.3-2.5,0.2s-1.5-0.4-2.2-0.9C94.1,43.6,93.5,42.9,93,42.2z M95.2,40.7c0.5,0.8,1.1,1.2,1.9,1.3
		s1.6-0.2,2.5-0.8l1.7-1.1c0.9-0.6,1.5-1.3,1.7-2s0.1-1.5-0.4-2.3s-1.1-1.2-1.9-1.3s-1.6,0.2-2.5,0.8l-1.7,1.1
		c-0.9,0.6-1.5,1.3-1.7,2C94.6,39.2,94.7,40,95.2,40.7z"/>
	<path class="st1" d="M98.8,67.1c0.1-0.9,0.3-1.7,0.7-2.5c0.4-0.7,0.9-1.3,1.5-1.8s1.4-0.8,2.3-1s1.9-0.2,3.1-0.1
		c1.1,0.1,2.2,0.4,3,0.8c0.9,0.4,1.6,0.9,2.1,1.5s0.9,1.3,1.2,2c0.2,0.8,0.3,1.6,0.2,2.6c-0.1,1.3-0.5,2.3-1.1,3
		c-0.6,0.8-1.5,1.3-2.7,1.7l-1.1-2.7c0.6-0.1,1.1-0.4,1.5-0.7c0.4-0.3,0.6-0.9,0.7-1.6c0.1-0.9-0.1-1.6-0.6-2.2s-1.3-0.9-2.4-1.1
		l-2.2-0.2c-1.1-0.1-1.9,0.1-2.6,0.5c-0.6,0.5-1,1.1-1.1,2c-0.1,0.7,0.1,1.3,0.4,1.8s0.8,0.9,1.3,1.1l-1.7,2.3
		c-1-0.6-1.7-1.4-2.2-2.3S98.6,68.3,98.8,67.1z"/>
	<path class="st1" d="M94,81.1c0.5-0.8,1-1.4,1.6-1.9s1.3-0.8,2.1-1c0.8-0.2,1.6-0.1,2.5,0.1s1.9,0.6,2.9,1.2s1.8,1.2,2.4,1.9
		c0.6,0.7,1.1,1.4,1.3,2.2c0.2,0.8,0.3,1.5,0.2,2.3s-0.4,1.6-0.9,2.4s-1,1.4-1.6,1.9s-1.3,0.8-2.1,1c-0.8,0.2-1.6,0.1-2.5-0.1
		S98,90.5,97,89.9s-1.8-1.2-2.4-1.9c-0.6-0.7-1.1-1.4-1.3-2.2c-0.2-0.8-0.3-1.5-0.2-2.3S93.5,81.9,94,81.1z M96.3,82.4
		c-0.5,0.8-0.6,1.5-0.3,2.3c0.3,0.7,0.9,1.4,1.8,1.9l1.8,1c1,0.6,1.8,0.8,2.6,0.6c0.8-0.1,1.4-0.6,1.8-1.4c0.5-0.8,0.6-1.5,0.3-2.3
		c-0.3-0.8-0.9-1.4-1.8-1.9l-1.8-1c-1-0.6-1.8-0.8-2.6-0.6C97.3,81.2,96.7,81.7,96.3,82.4z"/>
	<path class="st1" d="M87.8,97.8l2.6,1.5l0,0l-5.2-7.7l2.3-1.6l7.7,11.4l-2.7,1.8l-6.8-3.3l-2.6-1.5l0,0l5.2,7.7l-2.3,1.6l-7.7-11.4
		l2.7-1.8L87.8,97.8z"/>
	<path class="st1" d="M69.9,105.4l1.7,2.5h0.1l-1.4-9.1l2.8-0.4l2,13.6l-3.2,0.5l-4.7-5.9l-1.7-2.5h-0.1l1.4,9.1l-2.8,0.4L62,100
		l3.2-0.5L69.9,105.4z"/>
	<path class="st1" d="M56.4,99.4l-3.7,13.2l-9-2.5l0.7-2.6l6.1,1.7l0.8-2.7l-5.2-1.5l0.7-2.6l5.2,1.5l0.8-2.9l-6.1-1.7l0.7-2.6
		L56.4,99.4z"/>
	<path class="st1" d="M38.5,90.9c0.7,0.6,1.3,1.2,1.7,1.9c0.4,0.7,0.6,1.4,0.7,2.2c0.1,0.8-0.1,1.6-0.4,2.5
		c-0.3,0.9-0.8,1.7-1.6,2.7c-0.7,0.9-1.5,1.6-2.3,2.1s-1.6,0.9-2.4,1c-0.8,0.2-1.6,0.1-2.4-0.1c-0.8-0.2-1.5-0.6-2.3-1.2
		c-1-0.8-1.7-1.7-2-2.6s-0.3-2,0-3.2l2.9,0.6c-0.2,0.6-0.3,1.1-0.2,1.6c0.1,0.5,0.4,1,1,1.5c0.7,0.5,1.4,0.8,2.2,0.6
		c0.8-0.1,1.5-0.6,2.2-1.4l1.4-1.7c0.7-0.9,1-1.7,0.9-2.4c-0.1-0.8-0.4-1.4-1.1-2c-0.6-0.5-1.2-0.7-1.8-0.6c-0.6,0-1.1,0.2-1.7,0.5
		l-1-2.6c1.1-0.5,2.1-0.7,3.1-0.6C36.5,89.7,37.5,90.1,38.5,90.9z"/>
	<path class="st1" d="M19,84.3l9.7-5.3l1.4,2.6l-9.7,5.3l1.8,3.3l-2.3,1.3l-5-9.2l2.3-1.3L19,84.3z"/>
	<path class="st1" d="M24.6,61.8l1.1,9.7L23,71.8L18.9,68c-0.4-0.3-0.7-0.6-1-0.9c-0.3-0.2-0.6-0.4-0.9-0.5s-0.5-0.2-0.8-0.3
		c-0.3,0-0.5,0-0.8,0h-0.3c-0.3,0-0.5,0.1-0.7,0.2S14.1,66.8,14,67c-0.1,0.2-0.2,0.4-0.2,0.6s0,0.4,0,0.7c0,0.3,0.1,0.6,0.3,0.8
		c0.1,0.2,0.3,0.4,0.5,0.6s0.4,0.3,0.7,0.4c0.2,0.1,0.5,0.2,0.8,0.2L15.4,73c-0.5-0.1-1-0.3-1.4-0.5c-0.5-0.2-0.9-0.5-1.2-0.9
		c-0.4-0.4-0.7-0.8-0.9-1.4s-0.4-1.2-0.5-1.9c-0.1-0.7-0.1-1.4,0.1-2c0.1-0.6,0.4-1.1,0.7-1.6c0.3-0.4,0.7-0.8,1.2-1.1
		s1-0.4,1.6-0.5s1.1,0,1.6,0.1s1,0.3,1.5,0.6c0.5,0.3,0.9,0.6,1.3,1s0.9,0.8,1.3,1.3l2.3,2.3L22.2,62L24.6,61.8z"/>
</g>
</svg>
